<?xml version="1.0" encoding="utf-8"?>
<svg version="1.1" xmlns="http://www.w3.org/2000/svg" xmlns:xlink="http://www.w3.org/1999/xlink" x="0px" y="0px"
	 viewBox="0 0 40 60" xml:space="preserve">
<style type="text/css">
	.st1{fill-rule:evenodd;clip-rule:evenodd;fill:#222222;}
</style>
<g id="Element">
	<polygon id="Crown" class="st1" points="36.00,8.29 36.00,8.29 36.00,6.00 31.43,6.00 31.43,8.29 29.14,8.29 29.14,6.00 24.57,6.00 24.57,8.29 22.29,8.29 22.29,6.00 17.71,6.00 17.71,8.29 15.43,8.29 15.43,6.00 10.86,6.00 10.86,8.29 8.57,8.29 8.57,6.00 4.00,6.00 4.00,8.29 4.00,10.57 4.00,12.86 36.00,12.86"/>
	<polygon id="T_base" class="st1" points="36.00,15.14 4.00,15.14 8.57,19.71 13.14,19.71 13.14,22.00 13.14,42.96 17.71,38.39 17.71,22.00 17.71,19.71 22.29,19.71 22.29,22.00 22.29,38.39 26.86,42.96 26.86,22.00 26.86,19.71 31.43,19.71"/>
	<polygon id="W_base" class="st1" points="35.98,53.60 35.98,47.14 35.98,18.38 31.41,22.95 31.41,31.14 31.41,42.57 31.41,49.05 29.70,49.05 22.27,41.62 19.99,39.33 17.71,41.62 10.28,49.05 8.57,49.05 8.57,49.05 8.57,42.57 8.57,31.14 8.57,22.95 4.00,18.38 4.00,47.14 4.00,53.62 5.71,53.62 8.57,53.62 12.17,53.62 16.74,49.05 17.71,48.09 19.99,45.80 22.27,48.09 23.24,49.05 27.81,53.62 34.27,53.62 35.98,53.62 36.00,53.62"/>
</g>
</svg>
